<svg viewBox="0 0 400 150.26" xmlns="http://www.w3.org/2000/svg"><rect fill="#e4e4e4" height="2.59" rx="1.29" width="57.93" x="68.1" y="65.33"/><rect fill="#e4e4e4" height="2.59" rx="1.29" width="57.93" x="97.07" y="82.93"/><rect fill="#e4e4e4" height="2.59" rx="1.29" width="57.93" x="57.86" y="100.52"/><g fill="#fff"><rect height="3.74" rx="1.87" width="17.45" x="204.88" y="43.05"/><rect height="12.38" rx=".62" width="1.77" x="208.74" y="43.76"/><path d="m191.53 65.44a24.7 24.7 0 1 0 24.7 24.7 24.7 24.7 0 0 0 -24.7-24.7zm0 34.48a9.78 9.78 0 1 1 9.78-9.78 9.78 9.78 0 0 1 -9.78 9.78z"/><path d="m284.26 65.44a24.7 24.7 0 1 0 24.74 24.7 24.7 24.7 0 0 0 -24.74-24.7zm0 34.48a9.78 9.78 0 1 1 9.74-9.78 9.77 9.77 0 0 1 -9.74 9.78z"/><path d="m267.89 61.44h12.67c1.48 0 2.67-.92 2.67-2.06v-3.8c0-1.14-1.19-2.06-2.67-2.06h-85.33c-1.48 0-2.67.92-2.67 2.06v3.8c0 1.14 1.19 2.06 2.67 2.06h12.67c5 0 9.19 2.72 10.26 6.33a2.62 2.62 0 0 0 2.61 1.59h34.23a2.61 2.61 0 0 0 2.6-1.59c1.1-3.61 5.31-6.33 10.29-6.33z"/><path d="m254.57 71.67h-33.34c-1.75 0-2.69 1.4-1.54 2.29l3.68 2.87a7.93 7.93 0 0 0 4.79 1.47h19a8.12 8.12 0 0 0 4.52-1.3l4.32-3c1.28-.85.37-2.33-1.43-2.33z"/></g></svg>