<svg enable-background="new 0 0 1125 904.2" viewBox="0 0 1125 904.2" xmlns="http://www.w3.org/2000/svg"><path d="m493.9 533.8c-18.1 2-34.7 13.4-33.6 19.4 1.2 6.3 21.3 1.9 54.1 10.8 31.7 8.6 36.8 19.2 56.9 19.4 10.2.1 24.2-2.5 41.3-14.3 6-4.2 12.6-7.5 19.5-9.8 12.1-4 15-7.1 14.9-9.4-.2-7.2-29.8-15.9-58.6-12.5-20.8 2.5-20.6 8.8-37.6 9.1-26.7.3-33.4-15.3-56.9-12.7z" fill="#929eac"/><ellipse cx="541.3" cy="549.2" fill="#e4e4e4" rx="44.1" ry="9.2"/><circle cx="545.2" cy="461.2" fill="#f2f2f2" r="81.8"/><path d="m617.8 455.7c0 41.1-33.3 74.4-74.4 74.4-8.7 0-17.4-1.5-25.5-4.5-38.6-14.1-58.6-56.8-44.5-95.5s56.8-58.6 95.5-44.5c29.3 10.8 48.9 38.8 48.9 70.1z" fill="#fff"/><g fill="#c7d1dd"><circle cx="534.2" cy="468.5" r="23"/><path d="m614.8 476.6c-12.8-1.5-22-13-20.5-25.8 1.2-10.3 9-18.5 19.1-20.3 5.3 14.8 5.8 30.9 1.4 46.1z"/><circle cx="566.3" cy="416.2" r="8.3"/><path d="m534.2 527.3c0 .7-.1 1.4-.3 2.2-5.5-.7-10.9-2-16.1-3.9 1-4.5 5.4-7.3 9.8-6.3 3.9.8 6.6 4.1 6.6 8z"/><path d="m485.4 447.9c-.6 8.7-7.9 15.4-16.6 15.3-1.1-11 .3-22.2 4-32.6 7.9 2 13.2 9.3 12.6 17.3z"/></g><path d="m650.1 331.9c0-4.4-2.6-7.9-8.6-7.9-3.6 0-6.9 1.6-10.1 4.7-.6.5-1.5.5-2 0-.6-.6-.6-1.6 0-2.2 3.4-3.3 7-5.5 12.4-5.5 7.5 0 11.8 4.5 11.8 10.7 0 8.8-12.2 11.4-11.9 19.7 0 .8-.7 1.5-1.5 1.5h-.2c-.8 0-1.4-.6-1.5-1.3-.8-9.5 11.6-12.6 11.6-19.7zm-9.6 27c2 0 4 1.4 4 4s-1.9 4-4 4-4-1.4-4-4 1.9-4 4-4z" fill="#fff"/><path d="m617.8 363.2c0-2-1.2-3.6-3.9-3.6-1.6 0-3.1.7-4.5 2.1-.3.2-.7.2-.9 0-.3-.3-.3-.7 0-1 1.5-1.5 3.2-2.5 5.6-2.5 3.4 0 5.3 2 5.3 4.8 0 4-5.5 5.2-5.4 8.9 0 .4-.3.7-.7.7h-.1c-.3 0-.6-.3-.7-.6-.3-4.2 5.3-5.6 5.3-8.8zm-4.3 12.1c.9 0 1.8.7 1.8 1.8 0 1.2-.9 1.8-1.8 1.8s-1.8-.7-1.8-1.8.8-1.8 1.8-1.8z" fill="#fff"/><path d="m594.9 375.3c.9 0 1.8.7 1.8 1.8 0 1.2-.9 1.9-1.8 1.9-1 0-1.8-.7-1.8-1.9s.8-1.8 1.8-1.8z" fill="#fff"/><circle cx="430.6" cy="431.7" fill="#e4e4e4" r="8.2"/><circle cx="511.2" cy="358.9" fill="#f0f0f0" r="1.7"/><path d="m508.4 508.2c-8.6 1.9-16.8 3.2-24.2 4-9.6.9-17.5.8-23.3-.5-6.2-1.3-9.8-3.9-10.9-7.6-2.1-7.2 6.4-16.2 14-22.5l.5.9c-10.4 8.6-15.3 16.2-13.8 21.3 1.9 6.5 14.1 9.2 33.4 7.3 19.8-1.9 44.9-8.3 70.9-18 25.9-9.7 49.5-21.4 66.4-33.1 16.5-11.4 24.9-21.7 23-28.3-1.6-5.4-10.3-8.2-24.4-7.9l-.1-1.1c10.3-.3 23 1 25.2 8.7 1.1 3.7-.5 8.2-4.8 13.5-4 4.9-10.2 10.3-18.5 16-16.9 11.7-40.6 23.5-66.6 33.2-16.2 6.1-32.2 10.9-46.8 14.1z" fill="#9ea1af"/><ellipse cx="642.3" cy="427.7" fill="#e4e4e4" rx="4.3" ry="4.5" transform="matrix(.9767 -.2148 .2148 .9767 -76.8596 147.9164)"/><path d="m612.9 412.9c69.8-19.1 116-19.7 122.3-2.3 7.9 21.9-63 67.5-158.3 101.8s-179 44.3-186.9 22.4c-5.2-14.6 21-37.9 69.4-63.1" style="fill:none;stroke:#9ea1af;stroke-width:1.051;stroke-linecap:round;stroke-linejoin:round;stroke-miterlimit:10"/><circle cx="704.8" cy="446.8" fill="#e4e4e4" r="14.4"/><circle cx="422.4" cy="561.9" fill="#f0f0f0" r="1.7"/><circle cx="687.4" cy="519.1" fill="#f0f0f0" r="1.7"/></svg>