<svg enable-background="new 0 0 1125 904.2" viewBox="0 0 1125 904.2" xmlns="http://www.w3.org/2000/svg"><g fill="#fff"><path d="m497.9 605.6c-3.4.4-6.5.8-8.9 1l-.2-1.7c2.4-.2 5.6-.6 9.1-.9v-3.8h-4.9c-1.6 0-2.6.2-2.9.5-.1-.4-.4-1.3-.6-1.8.5-.1 1.2-.7 1.8-1.6.4-.5 1.3-1.8 2.3-3.4h-4.9v-1.5h5.8c.5-1 1-1.9 1.4-2.9l1.8.6c-.4.8-.8 1.5-1.3 2.3h9.6v1.5h-10.5c-1.1 1.7-2.2 3.4-3.3 4.8h5.7v-2.7h1.8v2.7h6.4v1.6h-6.4v3.6l6.4-.7v1.6l-6.4.7v4.1h-1.8zm-4.4 4.6h24.1v13.7h-1.8v-1.3h-20.6v1.4h-1.7zm1.7 1.6v3.8h20.6v-3.8zm20.6 9.3v-4h-20.6v4zm6.6-22.8v1.6h-4.8v9.5h-1.7v-9.5h-6.1c-.2 3.1-.9 6.7-2.9 9.4-.3-.3-1.1-.8-1.5-1 2.4-3.1 2.7-7.2 2.7-10.3v-5.8c4.1-.3 9.1-1 11.7-1.9l1.3 1.3c-2.8 1-7.4 1.6-11.3 1.9v4.4.3h12.6z"/><path d="m556.3 621.4c2.1 0 2.4-1 2.6-6.3.5.3 1.3.6 1.8.8-.3 5.8-.9 7.3-4.3 7.3h-7.9c-3.4 0-4.4-.7-4.4-3.5v-14.2h-1.4c-1.5 7.5-5.4 14.7-15.2 18.6-.3-.5-.8-1.1-1.3-1.5 9.3-3.5 13-10.2 14.6-17.1h-14.2v-1.8h14.5c.6-3.3.8-6.6.8-9.7h-13v-1.8h29.1v1.8h-14.3c-.1 3-.3 6.3-.8 9.7h17.4v1.8h-14.4v14.3c0 1.3.5 1.6 2.6 1.6z"/><path d="m577.2 615.9c.2.5.4 1.1.6 1.5-6.2 4.4-7.1 5.1-7.6 5.7-.2-.4-.8-1.1-1.1-1.4.6-.4 1.7-1.6 1.7-3.3v-14.8h-6.4v-1.8h8.2v17.2zm-3.7-18.1c-1.2-1.6-3.6-4.1-5.7-5.9l1.3-1.1c2 1.7 4.5 4.2 5.7 5.7zm20.3 23.9c2.5 0 2.9-1 3.2-6.6.5.3 1.2.6 1.8.8-.4 6-1.1 7.6-4.9 7.6h-9.7c-3.8 0-4.9-.7-4.9-3.6v-14.9h14.7v-10.8h-15.5v-1.8h17.3v16.3h-1.8v-2h-13v13.1c0 1.4.5 1.8 3.1 1.8h9.7z"/><path d="m633.1 608.5c-2.2 2-5.3 4.3-7.8 5.9 3 3.1 6.9 5.4 11.3 6.6-.4.4-1 1.1-1.3 1.6-6.4-2-11.7-6.3-15-12v11.2c0 1.3-.3 1.8-1.3 2.1s-2.8.3-5.8.3c-.1-.5-.4-1.1-.7-1.7 2.5.1 4.6.1 5.2 0 .6 0 .8-.2.8-.7v-6.7c-5 2.2-10.3 4.6-14.1 6.2l-1-1.6c3.8-1.4 9.5-3.9 15.1-6.2v-7.6h-15.4v-1.7h25.6c.1-1.4.2-2.9.3-4.4h-22v-1.8h22.2c.1-1.6.2-3.1.2-4.4h-23.4v-1.7h23.7l.3-.1 1.4.2c-.1 3.3-.4 8.3-.7 12.2h5.5v1.7h-15.7v1.3c.9 2.2 2.2 4.3 3.8 6.2 2.5-1.7 5.5-4.1 7.3-5.9zm-25.8-.9c2.5 1.3 5.5 3.4 7 4.9l-1.3 1.3c-1.4-1.5-4.4-3.6-6.9-5.1z"/></g><path d="m493.3 469.3 127.7 19.6c3.1.5 6.1-1.7 6.5-4.8l16.7-109c.5-3.1-1.7-6.1-4.8-6.5l-127.7-19.6c-3.1-.5-6.1 1.7-6.5 4.8l-16.7 109c-.5 3.1 1.6 6 4.8 6.5z" fill="#e4e4e4"/><path d="m626.3 385.3-107.4-16.5c-8.7-1.3-14.8-9.6-13.4-18.3l.1-.9c.2-1.2 1.4-2.1 2.6-1.9l134.2 20.6c1.4.2 2.4 1.6 2.2 3l-.1.6c-1.3 8.7-9.5 14.7-18.2 13.4z" fill="#929eac"/><circle cx="696.6" cy="289.5" fill="#e4e4e4" r="9.4"/><path d="m482.9 401.4c-82.9 4.8-133.4 21-133.8 42.2-.6 26.7 93.2 50.4 209.5 52.8 116.2 2.4 210.9-17.3 211.5-44 .4-17.8-36.7-33.5-98.6-43.2" style="fill:none;stroke:#9ea1af;stroke-width:1.2061;stroke-linecap:round;stroke-linejoin:round;stroke-miterlimit:10"/><path d="m435.8 397.1c-1-4.2-2-8.4-2.3-12.7-.2-2.3 0-4.7.8-6.9 1-2.6 2.9-4.6 5.2-6.2 2.8-2 5.9-3.5 9-4.9 2.2-1 4.4-2 6.6-3-.2 0-.3.1-.5.1-4.9 1.2-9.8 2.5-14.8 3-1.9.2-3.8.2-5.7-.2-3.6-.7-6.2-2.9-8.2-5.7s-3.5-5.9-4.9-9c-.9-2.1-1.8-4.2-2.8-6.3 0-.1-.1-.2-.3-.2.3 1.2.6 2.3.8 3.5 1 4.2 2 8.4 2.3 12.7.2 2.7 0 5.3-1.2 7.8-1.1 2.2-2.8 3.9-4.8 5.3-2.8 2-5.8 3.5-8.9 4.9-2.1 1-4.3 1.9-6.4 2.8 0 0-.1.1-.1.2 1.2-.3 2.3-.6 3.5-.9 4.5-1 9-2.2 13.6-2.3 2.8-.1 5.4.3 7.8 1.8 2.2 1.3 3.7 3.3 5.1 5.4 2 3.2 3.6 6.6 5.1 10 .7 1.5 1.3 3 1.9 4.4h.1c-.4-1.2-.7-2.4-.9-3.6z" fill="#fff"/><path d="m429 378.3c-.1-.2-.1-.5-.2-.7-.2-.8-.4-1.6-.4-2.5 0-.5 0-.9.2-1.3.2-.5.6-.9 1-1.2.5-.4 1.1-.7 1.7-.9.4-.2.9-.4 1.3-.6h-.1c-1 .2-1.9.5-2.9.6-.4 0-.7 0-1.1 0-.7-.1-1.2-.6-1.6-1.1s-.7-1.1-1-1.7c-.2-.4-.4-.8-.5-1.2.1.2.1.4.2.7.2.8.4 1.6.4 2.5 0 .5 0 1-.2 1.5-.2.4-.6.8-.9 1-.5.4-1.1.7-1.7.9-.4.2-.8.4-1.2.6.2-.1.5-.1.7-.2.9-.2 1.7-.4 2.6-.5.5 0 1.1.1 1.5.3.4.3.7.6 1 1 .4.6.7 1.3 1 1.9 0 .3.1.6.2.9z"/><path d="m690.1 369.1c-.4-1.9-.9-3.8-1-5.7-.1-1.1 0-2.1.4-3.1.5-1.2 1.3-2.1 2.3-2.8 1.3-.9 2.6-1.6 4-2.2 1-.5 2-.9 3-1.4-.1 0-.1 0-.2.1-2.2.5-4.4 1.1-6.7 1.3-.9.1-1.7.1-2.6-.1-1.6-.3-2.8-1.3-3.7-2.6s-1.6-2.7-2.2-4.1c-.4-.9-.8-1.9-1.2-2.8 0 0 0-.1-.1-.1.1.5.3 1 .4 1.6.4 1.9.9 3.8 1 5.7.1 1.2 0 2.4-.5 3.5-.5 1-1.3 1.8-2.2 2.4-1.3.9-2.6 1.6-4 2.2-1 .4-1.9.9-2.9 1.3v.1c.5-.1 1.1-.3 1.6-.4 2-.5 4.1-1 6.2-1 1.2 0 2.5.1 3.5.8 1 .6 1.7 1.5 2.3 2.4.9 1.4 1.6 3 2.3 4.5.3.7.6 1.3.9 2h.1c-.5-.5-.6-1-.7-1.6z" fill="#fff"/><path d="m687 360.6c0-.1-.1-.2-.1-.3-.1-.4-.2-.7-.2-1.1 0-.2 0-.4.1-.6s.3-.4.5-.5c.2-.2.5-.3.8-.4.2-.1.4-.2.6-.3-.4.1-.9.2-1.3.3-.2 0-.3 0-.5 0-.3-.1-.5-.2-.7-.5-.2-.2-.3-.5-.4-.8-.1-.2-.2-.4-.2-.6 0 .1.1.2.1.3.1.4.2.7.2 1.1 0 .2 0 .5-.1.7s-.2.3-.4.5-.5.3-.8.4c-.2.1-.4.2-.6.2.1 0 .2-.1.3-.1.4-.1.8-.2 1.2-.2.2 0 .5 0 .7.2.2.1.3.3.4.5.2.3.3.6.4.9-.1.1 0 .2 0 .3z"/><ellipse cx="543" cy="530.2" rx="10.3" ry="119.4" transform="matrix(.1206 -.9927 .9927 .1206 -48.8328 1005.3271)"/><path d="m522.2 386.9c-4.8 0-8.7 3.9-8.7 8.7 0 7.6 8.7 14.5 8.7 14.5s8.7-7 8.7-14.5c0-4.8-3.9-8.7-8.7-8.7zm0 14.3c-3 0-5.5-2.5-5.5-5.5s2.5-5.5 5.5-5.5 5.5 2.5 5.5 5.5c-.1 3-2.5 5.5-5.5 5.5z" fill="#929eac"/><path d="m610 441.8c-7.7 0-14 6.3-14 14 0 12.1 14 23.3 14 23.3s14-11.2 14-23.3c0-7.8-6.3-14-14-14zm0 22.8c-4.9 0-8.8-3.9-8.8-8.8s3.9-8.8 8.8-8.8 8.8 3.9 8.8 8.8-4 8.8-8.8 8.8z" fill="#929eac"/><path d="m535.1 420.4 64.9-23.2" style="fill:none;stroke:#929eac;stroke-width:4.4421;stroke-linecap:round;stroke-linejoin:round;stroke-miterlimit:3.25"/><path d="m535.1 436.6 64.9-23.2" style="fill:none;stroke:#929eac;stroke-width:4.4421;stroke-linecap:round;stroke-linejoin:round;stroke-miterlimit:3.25;stroke-dasharray:4.6333 13.8998"/><path d="m535.1 452.8 64.9-23.2" style="fill:none;stroke:#929eac;stroke-width:4.4421;stroke-linecap:round;stroke-linejoin:round;stroke-miterlimit:3.25"/><path d="m493.7 411.7c-36.5 4.3-58 13.1-58.3 24-.3 16.5 57.5 31.1 129.2 32.6s130.1-10.7 130.4-27.2c.2-10.1-19-19.1-51.7-25.1" style="fill:none;stroke:#9ea1af;stroke-width:.744;stroke-linecap:round;stroke-linejoin:round;stroke-miterlimit:10"/><ellipse cx="470.4" cy="414.3" fill="#e4e4e4" rx="5" ry="5.1" transform="matrix(.9942 -.1078 .1078 .9942 -41.9219 53.1147)"/><path d="m770.9 450.1c-.7-1.6-1.4-3.1-1.9-4.8-.2-.9-.4-1.8-.2-2.8.2-1.1.8-2 1.6-2.8.9-1 2-1.8 3.2-2.6.8-.6 1.6-1.1 2.4-1.7-.1 0-.1.1-.2.1-1.8.8-3.7 1.7-5.6 2.3-.7.2-1.5.4-2.3.4-1.5 0-2.6-.6-3.7-1.6-1-1-1.8-2-2.6-3.2-.5-.7-1-1.5-1.6-2.3 0 0-.1-.1-.1-.1.2.4.4.9.6 1.3.7 1.6 1.4 3.2 1.9 4.8.3 1 .4 2.1.1 3.2-.3 1-.8 1.8-1.5 2.5-.9 1-2 1.8-3.1 2.6-.8.5-1.5 1.1-2.3 1.6v.1c.4-.2.9-.4 1.3-.6 1.7-.8 3.4-1.5 5.2-2 1.1-.3 2.2-.3 3.2.1s1.7 1 2.4 1.7c1 1.1 1.9 2.3 2.8 3.5.4.5.7 1.1 1.1 1.6-.2-.4-.5-.8-.7-1.3z" fill="#fff"/><path d="m766.8 443.2c0-.1-.1-.2-.1-.3-.1-.3-.3-.6-.4-.9 0-.2-.1-.4 0-.5 0-.2.2-.4.3-.5.2-.2.4-.4.6-.5s.3-.2.5-.3c-.4.2-.7.3-1.1.4-.1 0-.3.1-.4.1-.3 0-.5-.1-.7-.3s-.4-.4-.5-.6c-.1-.1-.2-.3-.3-.4 0 .1.1.2.1.3.1.3.3.6.4.9.1.2.1.4 0 .6s-.2.3-.3.5c-.2.2-.4.4-.6.5-.1.1-.3.2-.4.3.1 0 .2-.1.3-.1.3-.1.7-.3 1-.4.2 0 .4-.1.6 0s.3.2.5.3c.2.2.4.4.5.7-.1 0 0 .1 0 .2z"/></svg>