<?xml version="1.0" encoding="utf-8"?>
<!-- Generator: Adobe Illustrator 23.1.0, SVG Export Plug-In . SVG Version: 6.00 Build 0)  -->
<svg version="1.1" id="图层_1" xmlns="http://www.w3.org/2000/svg" xmlns:xlink="http://www.w3.org/1999/xlink" x="0px" y="0px"
	 viewBox="0 0 1125 904.2" style="enable-background:new 0 0 1125 904.2;" xml:space="preserve">
<style type="text/css">
	.st0{fill:#929EAC;}
	.st1{fill:#E4E4E4;}
	.st2{fill:#F2F2F2;}
	.st3{fill:#FFFFFF;}
	.st4{fill:#C7D1DD;}
	.st5{fill:#F0F0F0;}
	.st6{fill:#9EA1AF;}
	.st7{fill:none;stroke:#9EA1AF;stroke-width:1.051;stroke-linecap:round;stroke-linejoin:round;stroke-miterlimit:10;}
	.st8{fill:none;stroke:#FFFFFF;stroke-width:7.9211;stroke-linecap:round;stroke-linejoin:round;stroke-miterlimit:3.25;}
	.st9{fill:url(#SVGID_1_);}
	.st10{opacity:0.29;fill:#1F0D39;}
	.st11{fill:url(#SVGID_2_);}
	.st12{fill:none;stroke:#929EAC;stroke-width:3.8708;stroke-linecap:round;stroke-linejoin:round;stroke-miterlimit:3.25;}
	
		.st13{fill:none;stroke:#929EAC;stroke-width:3.8708;stroke-linecap:round;stroke-linejoin:round;stroke-miterlimit:3.25;stroke-dasharray:4.0374,12.1122;}
	.st14{fill:none;stroke:#9EA1AF;stroke-width:0.6483;stroke-linecap:round;stroke-linejoin:round;stroke-miterlimit:10;}
	.st15{fill:none;stroke:#9EA1AF;stroke-width:1.2061;stroke-linecap:round;stroke-linejoin:round;stroke-miterlimit:10;}
	.st16{fill:none;stroke:#929EAC;stroke-width:4.4421;stroke-linecap:round;stroke-linejoin:round;stroke-miterlimit:3.25;}
	
		.st17{fill:none;stroke:#929EAC;stroke-width:4.4421;stroke-linecap:round;stroke-linejoin:round;stroke-miterlimit:3.25;stroke-dasharray:4.6333,13.8998;}
	.st18{fill:none;stroke:#9EA1AF;stroke-width:0.744;stroke-linecap:round;stroke-linejoin:round;stroke-miterlimit:10;}
</style>
<g>
	<g>
		<path class="st3" d="M656.8,471.8h-93.3l0,0h-12.1H546h-8.5h-68.9c-12.9,0-23.5,10.6-23.5,23.5v93.6c0,12.9,10.6,23.5,23.5,23.5
			h99.6l17.5,0h0h71.2c12.9,0,23.5-10.6,23.5-23.5v-93.6C680.3,482.3,669.7,471.8,656.8,471.8z"/>
		<circle class="st0" cx="652.9" cy="509.9" r="13.6"/>
		<polygon class="st0" points="566.9,593.7 601.3,594.2 661.7,594.9 632.1,543.4 602.6,491.8 571.7,542.6 554.2,571.5 539.6,546.2 
			512.3,498.4 483.7,545.5 455.1,592.5 511.1,593.2 		"/>
		<g>
			<g>
				<path class="st3" d="M577,411.6c0,0,0.1,0,0.1,0c0.1-1.4,0.2-2.8,0.4-4.2c0.3-3.2,0.6-6.5,1.4-9.7c0.5-2.1,1.3-4.1,2.7-5.8
					c1.6-1.9,3.7-3,6-3.7c3.9-1.2,7.9-1.5,11.9-1.9c1-0.1,2.1-0.2,3.1-0.3c0-0.1-0.1-0.1-0.1-0.1c-2-0.2-4.1-0.3-6.1-0.6
					c-2.9-0.3-5.9-0.7-8.7-1.5c-2-0.6-3.9-1.5-5.5-3c-1.7-1.7-2.6-3.8-3.2-6.1c-1-3.7-1.3-7.4-1.6-11.1c-0.1-1-0.2-2.1-0.3-3.1
					c-0.1,0.1-0.1,0.2-0.1,0.3c-0.2,2-0.3,4-0.5,6c-0.3,3-0.7,5.9-1.6,8.8c-0.9,3-2.4,5.5-5.2,7c-1.5,0.8-3,1.3-4.7,1.7
					c-4.3,1-8.7,1.3-13.1,1.7c-0.1,0-0.3,0-0.4,0c2.1,0.3,4.2,0.5,6.3,0.7c3,0.3,5.9,0.7,8.8,1.6c2.3,0.7,4.4,1.8,6,3.7
					c1.3,1.6,2.1,3.5,2.6,5.5c1,3.6,1.3,7.4,1.6,11.1C576.9,409.5,576.9,410.6,577,411.6z"/>
				<path d="M577.1,391c0-0.2,0-0.4-0.1-0.6c-0.1-0.7-0.1-1.4-0.3-2.2c-0.1-0.4-0.2-0.7-0.5-1.1c-0.3-0.4-0.7-0.6-1.2-0.7
					c-0.6-0.2-1.1-0.2-1.7-0.3c-0.4,0-0.8-0.1-1.2-0.1c0,0,0.1,0,0.1,0c0.8-0.1,1.7-0.1,2.5-0.3c0.3-0.1,0.6-0.2,0.9-0.3
					c0.5-0.3,0.8-0.8,1-1.4c0.2-0.6,0.2-1.1,0.3-1.7c0-0.4,0.1-0.8,0.1-1.2c0,0,0,0,0-0.1c0,0.2,0,0.4,0.1,0.6
					c0.1,0.7,0.1,1.5,0.3,2.2c0.1,0.4,0.3,0.9,0.6,1.2c0.3,0.3,0.7,0.5,1.1,0.6c0.6,0.2,1.1,0.2,1.7,0.3c0.4,0,0.8,0.1,1.2,0.1
					c0,0,0,0,0,0c-0.2,0-0.4,0-0.6,0.1c-0.8,0.1-1.6,0.1-2.3,0.4c-0.4,0.1-0.9,0.3-1.2,0.7c-0.3,0.3-0.4,0.7-0.5,1.1
					c-0.2,0.6-0.2,1.2-0.3,1.9C577.1,390.5,577.1,390.8,577.1,391C577.1,391,577.1,391,577.1,391z"/>
			</g>
			<g>
				<path class="st3" d="M628.5,448C628.6,448,628.6,448,628.5,448c0.1-0.6,0.2-1.3,0.2-1.9c0.1-1.5,0.3-2.9,0.7-4.4
					c0.2-1,0.6-1.9,1.2-2.6c0.7-0.9,1.7-1.3,2.7-1.7c1.8-0.5,3.6-0.7,5.4-0.8c0.5,0,0.9-0.1,1.4-0.1c0,0,0-0.1-0.1-0.1
					c-0.9-0.1-1.8-0.2-2.8-0.3c-1.3-0.1-2.7-0.3-3.9-0.7c-0.9-0.3-1.8-0.7-2.5-1.4c-0.8-0.8-1.2-1.7-1.4-2.8c-0.4-1.7-0.6-3.3-0.7-5
					c0-0.5-0.1-0.9-0.1-1.4c0,0-0.1,0.1-0.1,0.1c-0.1,0.9-0.2,1.8-0.2,2.7c-0.1,1.3-0.3,2.7-0.7,4c-0.4,1.3-1.1,2.5-2.3,3.2
					c-0.7,0.4-1.4,0.6-2.1,0.8c-1.9,0.5-3.9,0.6-5.9,0.8c-0.1,0-0.1,0-0.2,0c0.9,0.1,1.9,0.2,2.8,0.3c1.3,0.1,2.7,0.3,4,0.7
					c1,0.3,2,0.8,2.7,1.7c0.6,0.7,0.9,1.6,1.2,2.5c0.4,1.6,0.6,3.3,0.7,5C628.5,447.1,628.5,447.5,628.5,448z M642.6,422.4
					c-0.1,0-0.1-0.1-0.2-0.1c-0.1,0-0.3,0.3-0.3,0.5C642.3,422.7,642.5,422.5,642.6,422.4z"/>
				<path d="M628.6,438.7c0-0.1,0-0.2,0-0.3c0-0.3-0.1-0.7-0.1-1c0-0.2-0.1-0.3-0.2-0.5c-0.1-0.2-0.3-0.3-0.5-0.3
					c-0.3-0.1-0.5-0.1-0.8-0.1c-0.2,0-0.4,0-0.5-0.1c0,0,0,0,0,0c0.4,0,0.8-0.1,1.1-0.1c0.1,0,0.3-0.1,0.4-0.2
					c0.2-0.1,0.4-0.4,0.5-0.6c0.1-0.3,0.1-0.5,0.1-0.8c0-0.2,0-0.3,0-0.5c0,0,0,0,0,0c0,0.1,0,0.2,0,0.3c0,0.3,0.1,0.7,0.1,1
					c0.1,0.2,0.1,0.4,0.3,0.5c0.1,0.1,0.3,0.2,0.5,0.3c0.2,0.1,0.5,0.1,0.8,0.1c0.2,0,0.4,0,0.5,0c0,0,0,0,0,0c-0.1,0-0.2,0-0.3,0
					c-0.4,0-0.7,0.1-1,0.2c-0.2,0.1-0.4,0.2-0.5,0.3c-0.1,0.1-0.2,0.3-0.2,0.5c-0.1,0.3-0.1,0.6-0.1,0.8
					C628.6,438.5,628.6,438.6,628.6,438.7C628.6,438.7,628.6,438.7,628.6,438.7z"/>
			</g>
			<g>
				<path class="st3" d="M504.9,441.9C504.9,441.9,504.9,441.9,504.9,441.9c0.1-0.7,0.2-1.5,0.3-2.2c0.2-1.7,0.3-3.4,0.8-5.1
					c0.3-1.1,0.7-2.2,1.4-3.1c0.8-1,1.9-1.6,3.2-1.9c2.1-0.6,4.2-0.8,6.3-1c0.6-0.1,1.1-0.1,1.7-0.1c0,0,0-0.1-0.1-0.1
					c-1.1-0.1-2.2-0.2-3.2-0.3c-1.6-0.2-3.1-0.4-4.6-0.8c-1.1-0.3-2.1-0.8-2.9-1.6c-0.9-0.9-1.4-2-1.7-3.2c-0.5-1.9-0.7-3.9-0.9-5.9
					c-0.1-0.5-0.1-1.1-0.1-1.6c-0.1,0-0.1,0.1-0.1,0.1c-0.1,1.1-0.2,2.1-0.3,3.2c-0.2,1.6-0.4,3.2-0.8,4.7c-0.5,1.6-1.3,2.9-2.7,3.7
					c-0.8,0.4-1.6,0.7-2.5,0.9c-2.3,0.5-4.6,0.7-6.9,0.9c-0.1,0-0.2,0-0.2,0c1.1,0.1,2.2,0.2,3.3,0.4c1.6,0.2,3.1,0.4,4.7,0.8
					c1.2,0.4,2.3,0.9,3.2,1.9c0.7,0.8,1.1,1.8,1.4,2.9c0.5,1.9,0.7,3.9,0.9,5.9C504.8,440.8,504.8,441.3,504.9,441.9z M521.4,411.8
					c-0.1-0.1-0.1-0.1-0.2-0.1c-0.1,0-0.4,0.4-0.4,0.6C521.1,412.1,521.2,411.9,521.4,411.8z"/>
				<path d="M504.9,431c0-0.1,0-0.2,0-0.3c0-0.4-0.1-0.8-0.2-1.1c-0.1-0.2-0.1-0.4-0.3-0.6c-0.2-0.2-0.4-0.3-0.6-0.4
					c-0.3-0.1-0.6-0.1-0.9-0.2c-0.2,0-0.4,0-0.6-0.1c0,0,0,0,0,0c0.5,0,0.9-0.1,1.3-0.2c0.2,0,0.3-0.1,0.5-0.2
					c0.3-0.2,0.4-0.4,0.5-0.7c0.1-0.3,0.1-0.6,0.2-0.9c0-0.2,0-0.4,0.1-0.6c0,0,0,0,0,0c0,0.1,0,0.2,0,0.3c0,0.4,0.1,0.8,0.2,1.1
					c0.1,0.2,0.2,0.5,0.3,0.6c0.2,0.2,0.4,0.3,0.6,0.3c0.3,0.1,0.6,0.1,0.9,0.2c0.2,0,0.4,0,0.6,0.1c0,0,0,0,0,0c-0.1,0-0.2,0-0.3,0
					c-0.4,0-0.8,0.1-1.2,0.2c-0.2,0.1-0.5,0.2-0.6,0.4c-0.1,0.2-0.2,0.4-0.3,0.6c-0.1,0.3-0.1,0.7-0.1,1
					C504.9,430.7,504.9,430.8,504.9,431C504.9,431,504.9,431,504.9,431z"/>
			</g>
		</g>
	</g>
	<ellipse class="st1" cx="562.7" cy="643.2" rx="104" ry="9"/>
</g>
</svg>
