<svg enable-background="new 0 0 1125 904.2" viewBox="0 0 1125 904.2" xmlns="http://www.w3.org/2000/svg"><path d="m511.3 357.4h.1c.1-1.4.2-2.8.4-4.2.3-3.2.6-6.5 1.4-9.7.5-2.1 1.3-4.1 2.7-5.8 1.6-1.9 3.7-3 6-3.7 3.9-1.2 7.9-1.5 11.9-1.9 1-.1 2.1-.2 3.1-.3 0-.1-.1-.1-.1-.1-2-.2-4.1-.3-6.1-.6-2.9-.3-5.9-.7-8.7-1.5-2-.6-3.9-1.5-5.5-3-1.7-1.7-2.6-3.8-3.2-6.1-1-3.7-1.3-7.4-1.6-11.1-.1-1-.2-2.1-.3-3.1-.1.1-.1.2-.1.3-.2 2-.3 4-.5 6-.3 3-.7 5.9-1.6 8.8-.9 3-2.4 5.5-5.2 7-1.5.8-3 1.3-4.7 1.7-4.3 1-8.7 1.3-13.1 1.7-.1 0-.3 0-.4 0 2.1.3 4.2.5 6.3.7 3 .3 5.9.7 8.8 1.6 2.3.7 4.4 1.8 6 3.7 1.3 1.6 2.1 3.5 2.6 5.5 1 3.6 1.3 7.4 1.6 11.1.1.9.2 1.9.2 3z" fill="#fff"/><path d="m511.4 336.8c0-.2 0-.4-.1-.6-.1-.7-.1-1.4-.3-2.2-.1-.4-.2-.7-.5-1.1s-.7-.6-1.2-.7c-.6-.2-1.1-.2-1.7-.3-.4 0-.8-.1-1.2-.1h.1c.8-.1 1.7-.1 2.5-.3.3-.1.6-.2.9-.3.5-.3.8-.8 1-1.4s.2-1.1.3-1.7c0-.4.1-.8.1-1.2 0 0 0 0 0-.1 0 .2 0 .4.1.6.1.7.1 1.5.3 2.2.1.4.3.9.6 1.2s.7.5 1.1.6c.6.2 1.1.2 1.7.3.4 0 .8.1 1.2.1-.2 0-.4 0-.6.1-.8.1-1.6.1-2.3.4-.4.1-.9.3-1.2.7-.3.3-.4.7-.5 1.1-.2.6-.2 1.2-.3 1.9.1.2 0 .5 0 .8z"/><path d="m562.9 393.8c.1-.6.2-1.3.2-1.9.1-1.5.3-2.9.7-4.4.2-1 .6-1.9 1.2-2.6.7-.9 1.7-1.3 2.7-1.7 1.8-.5 3.6-.7 5.4-.8.5 0 .9-.1 1.4-.1 0 0 0-.1-.1-.1-.9-.1-1.8-.2-2.8-.3-1.3-.1-2.7-.3-3.9-.7-.9-.3-1.8-.7-2.5-1.4-.8-.8-1.2-1.7-1.4-2.8-.4-1.7-.6-3.3-.7-5 0-.5-.1-.9-.1-1.4 0 0-.1.1-.1.1-.1.9-.2 1.8-.2 2.7-.1 1.3-.3 2.7-.7 4s-1.1 2.5-2.3 3.2c-.7.4-1.4.6-2.1.8-1.9.5-3.9.6-5.9.8-.1 0-.1 0-.2 0 .9.1 1.9.2 2.8.3 1.3.1 2.7.3 4 .7 1 .3 2 .8 2.7 1.7.6.7.9 1.6 1.2 2.5.4 1.6.6 3.3.7 5-.1.4-.1.9 0 1.4z" fill="#fff"/><path d="m562.9 384.5c0-.1 0-.2 0-.3 0-.3-.1-.7-.1-1 0-.2-.1-.3-.2-.5s-.3-.3-.5-.3c-.3-.1-.5-.1-.8-.1-.2 0-.4 0-.5-.1.4 0 .8-.1 1.1-.1.1 0 .3-.1.4-.2.2-.1.4-.4.5-.6.1-.3.1-.5.1-.8 0-.2 0-.3 0-.5v.3c0 .3.1.7.1 1 .1.2.1.4.3.5.1.1.3.2.5.3s.5.1.8.1h.5c-.1 0-.2 0-.3 0-.4 0-.7.1-1 .2-.2.1-.4.2-.5.3s-.2.3-.2.5c-.1.3-.1.6-.1.8-.1.2-.1.4-.1.5z"/><path d="m439.2 387.6c.1-.7.2-1.5.3-2.2.2-1.7.3-3.4.8-5.1.3-1.1.7-2.2 1.4-3.1.8-1 1.9-1.6 3.2-1.9 2.1-.6 4.2-.8 6.3-1 .6-.1 1.1-.1 1.7-.1 0 0 0-.1-.1-.1-1.1-.1-2.2-.2-3.2-.3-1.6-.2-3.1-.4-4.6-.8-1.1-.3-2.1-.8-2.9-1.6-.9-.9-1.4-2-1.7-3.2-.5-1.9-.7-3.9-.9-5.9-.1-.5-.1-1.1-.1-1.6-.1 0-.1.1-.1.1-.1 1.1-.2 2.1-.3 3.2-.2 1.6-.4 3.2-.8 4.7-.5 1.6-1.3 2.9-2.7 3.7-.8.4-1.6.7-2.5.9-2.3.5-4.6.7-6.9.9-.1 0-.2 0-.2 0 1.1.1 2.2.2 3.3.4 1.6.2 3.1.4 4.7.8 1.2.4 2.3.9 3.2 1.9.7.8 1.1 1.8 1.4 2.9.5 1.9.7 3.9.9 5.9-.3.4-.3 1-.2 1.5z" fill="#fff"/><path d="m439.2 376.7c0-.1 0-.2 0-.3 0-.4-.1-.8-.2-1.1-.1-.2-.1-.4-.3-.6s-.4-.3-.6-.4c-.3-.1-.6-.1-.9-.2-.2 0-.4 0-.6-.1.5 0 .9-.1 1.3-.2.2 0 .3-.1.5-.2.3-.2.4-.4.5-.7s.1-.6.2-.9c0-.2 0-.4.1-.6v.3c0 .4.1.8.2 1.1.1.2.2.5.3.6.2.2.4.3.6.3.3.1.6.1.9.2.2 0 .4 0 .6.1-.1 0-.2 0-.3 0-.4 0-.8.1-1.2.2-.2.1-.5.2-.6.4s-.2.4-.3.6c-.1.3-.1.7-.1 1 0 .2-.1.4-.1.5z"/><path d="m476.9 468.5 6.4-50.9h-77.4c-12.9 0-23.5 10.6-23.5 23.5v93.6c0 12.9 10.6 23.5 23.5 23.5h99.6l13.4-24z" fill="#fff"/><path d="m448.3 539-55.9-.7 28.6-47.1 28.5-47 27.4 47.7 27.4 47.8z" fill="#929eac"/><path d="m594.2 425.1h-93.3l-6.4 50.9 15.6 24.3 2.6-4.3 28.6-47 27.4 47.8 27.4 47.8-55.9-.7-4.8-.1-12.3 22h71.2c12.9 0 23.5-10.6 23.5-23.5v-93.6c-.1-13-10.6-23.6-23.6-23.6z" fill="#fff"/><path d="m596 544.5-27.4-47.7-27.3-47.8-28.6 47.1-2.6 4.3 26.4 41.3-1.2 2.1h4.8z" fill="#929eac"/><circle cx="590.3" cy="455.3" fill="#929eac" r="13.6"/><ellipse cx="500" cy="588.9" fill="#e4e4e4" rx="104" ry="9"/></svg>